<mxfile host="app.diagrams.net" modified="2024-04-03T00:31:14.058Z" agent="Mozilla/5.0 (Macintosh; Intel Mac OS X 10_15_7) AppleWebKit/537.36 (KHTML, like Gecko) Chrome/122.0.0.0 Safari/537.36" version="24.2.1" etag="ekkkFahPJ3MDnIG2aGsJ" type="github">
  <diagram name="第 1 页" id="GKN8fZCeVDzbttw34AWY">
    <mxGraphModel>
      <root>
        <mxCell id="0" />
        <mxCell id="1" parent="0" />
      </root>
    </mxGraphModel>
  </diagram>
</mxfile>
